<?xml version="1.0" encoding="utf-8"?>
<!-- Generator: Adobe Illustrator 21.0.0, SVG Export Plug-In . SVG Version: 6.00 Build 0)  -->
<svg version="1.1" id="livetype" xmlns="http://www.w3.org/2000/svg" xmlns:xlink="http://www.w3.org/1999/xlink" x="0px" y="0px"
	 viewBox="0 0 119.7 40" style="enable-background:new 0 0 119.7 40;" xml:space="preserve">
<style type="text/css">
	.st0{fill:#FFFFFF;}
	.st1{enable-background:new    ;}
	.st2{fill:none;stroke:#000000;stroke-width:0.7;stroke-miterlimit:10;}
</style>
<title>Download_on_the_App_Store_Badge_US-UK_RGB_wht_092917</title>
<g>
	<g>
		<g>
			<path d="M112.9,0H41.2c-0.3,0-0.5,0-0.8,0c-0.2,0-0.5,0-0.7,0c-0.5,0-1,0-1.4,0.1c-0.5,0.1-1,0.2-1.3,0.5
				c-0.4,0.2-0.8,0.5-1.2,0.9c-0.4,0.4-0.6,0.8-0.9,1.2c-0.2,0.4-0.4,0.9-0.5,1.3c-0.1,0.5-0.1,1-0.1,1.4c0,0.2,0,0.5,0,0.7v16.5
				c0,0.2,0,0.5,0,0.7c0,0.5,0.1,1,0.1,1.4c0.1,0.5,0.2,1,0.5,1.3c0.2,0.4,0.5,0.8,0.9,1.2c0.3,0.4,0.8,0.6,1.2,0.9
				c0.4,0.2,0.9,0.4,1.3,0.5c0.5,0.1,1,0.1,1.4,0.1c0.2,0,0.5,0,0.7,0c0.3,0,0.5,0,0.8,0h71.6c0.3,0,0.5,0,0.8,0c0.2,0,0.5,0,0.7,0
				c0.5,0,1,0,1.4-0.1s1-0.2,1.3-0.5c0.4-0.2,0.8-0.5,1.2-0.9c0.4-0.3,0.6-0.8,0.9-1.2c0.2-0.4,0.4-0.9,0.5-1.3
				c0.1-0.5,0.1-1,0.1-1.4c0-0.2,0-0.5,0-0.7c0-0.3,0-0.5,0-0.8v-15c0-0.3,0-0.5,0-0.8c0-0.2,0-0.5,0-0.7c0-0.5-0.1-1-0.1-1.4
				c-0.1-0.5-0.2-1-0.5-1.3c-0.5-0.9-1.2-1.5-2-2c-0.4-0.2-0.9-0.4-1.3-0.5s-1-0.1-1.4-0.1c-0.2,0-0.5,0-0.7,0
				C113.4,0,113.2,0,112.9,0L112.9,0z"/>
			<path class="st0" d="M40.4,27.8c-0.2,0-0.4,0-0.7,0c-0.5,0-0.9,0-1.3-0.1c-0.4-0.1-0.8-0.2-1.2-0.4s-0.7-0.4-1-0.8
				c-0.3-0.3-0.6-0.6-0.8-1c-0.2-0.4-0.3-0.8-0.4-1.2c-0.1-0.5-0.1-0.9-0.1-1.3c0-0.2,0-0.7,0-0.7V6c0,0,0-0.5,0-0.7
				c0-0.5,0-0.9,0.1-1.3c0.1-0.3,0.3-0.7,0.5-1.1c0.2-0.4,0.4-0.7,0.8-1c0.3-0.3,0.7-0.6,1-0.8c0.4-0.2,0.8-0.4,1.2-0.4
				c0.5-0.1,0.9-0.1,1.3-0.1h0.7h73.2h0.7c0.5,0,0.9,0,1.3,0.1c0.4,0.1,0.8,0.2,1.2,0.4c0.8,0.4,1.3,1,1.7,1.7
				c0.2,0.4,0.3,0.8,0.4,1.2c0.1,0.5,0.1,0.9,0.1,1.3c0,0.2,0,0.4,0,0.7c0,0.3,0,0.5,0,0.8v14.9c0,0.3,0,0.5,0,0.8
				c0,0.2,0,0.5,0,0.7c0,0.5-0.1,0.9-0.1,1.3c-0.1,0.4-0.2,0.8-0.4,1.2c-0.2,0.4-0.4,0.7-0.8,1c-0.3,0.3-0.7,0.6-1,0.8
				c-0.4,0.2-0.8,0.3-1.2,0.4c-0.5,0.1-0.9,0.1-1.3,0.1c-0.2,0-0.4,0-0.7,0H113L40.4,27.8z"/>
		</g>
		<g id="_Group_">
			<g id="_Group_2">
				<g id="_Group_3">
					<path id="_Path_" d="M52.3,14.2c0-1.3,0.7-2.4,1.7-3.1c-0.7-1-1.7-1.5-3-1.6c-1.3-0.1-2.4,0.8-3.1,0.8s-1.6-0.8-2.7-0.7
						c-1.3,0-2.6,0.8-3.3,2c-1.4,2.5-0.4,6.2,1,8.1c0.7,1,1.4,2.1,2.5,2c1.1,0,1.4-0.7,2.7-0.7c1.3,0,1.5,0.7,2.7,0.7
						c1.1,0,1.8-1,2.5-2c0.5-0.7,0.9-1.4,1.2-2.3C53.2,16.8,52.3,15.6,52.3,14.2z"/>
					<path id="_Path_2" d="M50.3,8.2c0.6-0.7,0.9-1.6,0.9-2.6c-1,0.1-1.7,0.6-2.4,1.3c-0.6,0.7-0.9,1.5-0.9,2.5
						C48.8,9.3,49.7,8.9,50.3,8.2z"/>
				</g>
			</g>
			<g>
				<path d="M64.6,19.4h-3.4l-0.8,2.4H59l3.2-8.9h1.4l3.2,8.9h-1.4L64.6,19.4z M61.5,18.2h2.7l-1.3-3.9l0,0L61.5,18.2z"/>
				<path d="M73.8,18.5c0,2-1.1,3.3-2.7,3.3c-0.9,0-1.6-0.4-2-1.2l0,0v3.2h-1.3v-8.6H69v1.2l0,0c0.4-0.8,1.3-1.2,2-1.2
					C72.7,15.2,73.8,16.5,73.8,18.5z M72.4,18.5c0-1.3-0.7-2.1-1.7-2.1c-1,0-1.7,0.9-1.7,2.1c0,1.3,0.7,2.2,1.7,2.2
					C71.7,20.7,72.4,19.8,72.4,18.5L72.4,18.5z"/>
				<path d="M80.8,18.5c0,2-1.1,3.3-2.7,3.3c-0.9,0-1.6-0.4-2-1.2l0,0v3.2h-1.3v-8.6H76v1.2l0,0c0.4-0.8,1.3-1.2,2-1.2
					C79.7,15.2,80.8,16.5,80.8,18.5z M79.4,18.5c0-1.3-0.7-2.1-1.7-2.1c-1,0-1.7,0.9-1.7,2.1c0,1.3,0.7,2.2,1.7,2.2
					C78.8,20.7,79.4,19.8,79.4,18.5z"/>
				<path d="M85.5,19.3c0.1,0.9,1,1.4,2.1,1.4c1.2,0,1.9-0.6,1.9-1.3c0-0.7-0.5-1.1-1.6-1.3l-1.2-0.3c-1.6-0.4-2.4-1.2-2.4-2.4
					c0-1.5,1.3-2.6,3.2-2.6s3.2,1.1,3.2,2.6h-1.3c-0.1-0.9-0.8-1.4-1.8-1.4s-1.8,0.6-1.8,1.3c0,0.6,0.5,1,1.6,1.3l1,0.2
					c1.8,0.4,2.6,1.2,2.6,2.4c0,1.6-1.3,2.7-3.4,2.7c-1.9,0-3.3-1.1-3.4-2.6L85.5,19.3z"/>
				<path d="M93.8,13.8v1.5H95v1.1h-1.3v3.6c0,0.6,0.3,0.8,0.8,0.8c0.2,0,0.3,0,0.5,0v1.1c-0.3,0-0.5,0.1-0.8,0.1
					c-1.3,0-1.8-0.5-1.8-1.7v-3.7h-1v-1.1h1v-1.5L93.8,13.8L93.8,13.8z"/>
				<path d="M95.7,18.5c0-2,1.2-3.3,3.1-3.3c1.8,0,3.1,1.3,3.1,3.3s-1.2,3.3-3.1,3.3C97,21.8,95.7,20.5,95.7,18.5z M100.5,18.5
					c0-1.3-0.7-2.2-1.7-2.2c-1.1,0-1.7,0.9-1.7,2.2c0,1.4,0.7,2.2,1.7,2.2C99.9,20.7,100.5,19.8,100.5,18.5L100.5,18.5z"/>
				<path d="M102.9,15.3h1.3v1.1l0,0c0.2-0.7,0.9-1.2,1.5-1.2c0.2,0,0.3,0,0.5,0.1v1.3c-0.2-0.1-0.4-0.1-0.6-0.1
					c-0.8,0-1.3,0.6-1.3,1.3c0,0.1,0,0.1,0,0.2v3.9h-1.3V15.3z"/>
				<path d="M112.4,19.8c-0.2,1.2-1.3,1.9-2.8,1.9c-1.8,0-3.1-1.3-3.1-3.3s1.2-3.4,3-3.4c1.8,0,2.9,1.3,2.9,3.2v0.5h-4.5v0.1
					c-0.1,1,0.6,1.7,1.5,1.8c0.1,0,0.1,0,0.2,0c0.7,0.1,1.3-0.3,1.4-0.9H112.4z M107.9,17.9h3.2c0-0.9-0.6-1.5-1.4-1.6h-0.1
					C108.6,16.3,107.9,16.9,107.9,17.9L107.9,17.9z"/>
			</g>
		</g>
	</g>
	<g id="_Group_4">
		<g>
			<path d="M61.4,6.3c1.1-0.1,1.9,0.7,2,1.7c0,0.1,0,0.3,0,0.4c0,1.3-0.8,2.1-2,2.1h-1.5V6.3H61.4z M60.6,9.8h0.8
				c0.8,0,1.3-0.5,1.4-1.3c0-0.1,0-0.2,0-0.3c0.1-0.8-0.4-1.4-1.2-1.5c-0.1,0-0.2,0-0.3,0h-0.8V9.8z"/>
			<path d="M64.1,8.9C64,8,64.7,7.3,65.5,7.2c0.9-0.1,1.5,0.6,1.6,1.3c0,0.1,0,0.2,0,0.3c0.1,0.9-0.5,1.5-1.3,1.6
				c-0.9,0.1-1.5-0.5-1.6-1.3C64.1,9,64.1,9,64.1,8.9z M66.5,8.9c0-0.7-0.3-1.1-0.9-1.1c-0.6,0-0.9,0.4-0.9,1.1
				c0,0.7,0.3,1.1,0.9,1.1S66.5,9.5,66.5,8.9L66.5,8.9z"/>
			<path d="M71.2,10.5h-0.7l-0.6-2.4h-0.1l-0.7,2.4h-0.7l-0.9-3.2h0.7l0.6,2.4l0,0l0.7-2.4h0.6l0.7,2.4h0.1l0.6-2.4h0.7L71.2,10.5z"
				/>
			<path d="M72.8,7.2h0.6v0.5l0,0c0.2-0.4,0.6-0.6,1-0.6c0.6,0,1.1,0.4,1.2,1c0,0.1,0,0.2,0,0.2v2.1h-0.7V8.5c0-0.5-0.2-0.8-0.7-0.8
				c-0.4,0-0.8,0.3-0.8,0.7v0.1v1.8h-0.6V7.2z"/>
			<path d="M76.6,6h0.7v4.4h-0.7V6z"/>
			<path d="M78.1,8.9C78,8,78.7,7.3,79.4,7.2c0.9-0.1,1.5,0.6,1.6,1.3c0,0.1,0,0.2,0,0.3c0.1,0.9-0.6,1.5-1.3,1.6
				c-0.9,0.1-1.5-0.6-1.6-1.3C78,9,78,9,78.1,8.9z M80.4,8.9c0-0.7-0.3-1.1-0.9-1.1c-0.6,0-0.9,0.4-0.9,1.1c0,0.7,0.3,1.1,0.9,1.1
				C80.1,9.9,80.4,9.5,80.4,8.9z"/>
			<path d="M81.8,9.5c0-0.6,0.4-0.9,1.2-1l0.9-0.1V8.3c0-0.4-0.2-0.6-0.7-0.6c-0.4,0-0.6,0.1-0.7,0.4h-0.6c0.1-0.6,0.6-0.9,1.3-0.9
				c0.8,0,1.3,0.4,1.3,1.1v2.2h-0.6V10h-0.1c-0.2,0.3-0.6,0.5-1,0.5C82.2,10.6,81.9,10.2,81.8,9.5C81.8,9.6,81.8,9.6,81.8,9.5z
				 M83.8,9.2V9L83,9.1c-0.5,0-0.7,0.2-0.7,0.5c0,0.3,0.3,0.5,0.6,0.5C83.4,10,83.8,9.7,83.8,9.2C83.8,9.3,83.8,9.2,83.8,9.2z"/>
			<path d="M85.2,8.9c0-1.1,0.5-1.6,1.3-1.6c0.4,0,0.8,0.2,1,0.6l0,0V6h0.7v4.4h-0.6V9.9h-0.1c-0.2,0.4-0.6,0.6-1,0.6
				C85.8,10.5,85.2,9.9,85.2,8.9z M85.9,8.9c0,0.7,0.3,1.1,0.9,1.1c0.6,0,0.9-0.4,0.9-1.1c0-0.7-0.3-1.1-0.9-1.1
				C86.3,7.8,85.9,8.2,85.9,8.9L85.9,8.9z"/>
			<path d="M90.9,8.9c-0.1-0.9,0.6-1.5,1.3-1.6c0.9-0.1,1.5,0.6,1.6,1.3c0,0.1,0,0.2,0,0.3c0.1,0.9-0.5,1.5-1.3,1.6
				c-0.9,0.1-1.5-0.5-1.6-1.3C90.9,9,90.9,9,90.9,8.9z M93.2,8.9c0-0.7-0.3-1.1-0.9-1.1c-0.6,0-0.9,0.4-0.9,1.1
				c0,0.7,0.3,1.1,0.9,1.1S93.2,9.5,93.2,8.9z"/>
			<path d="M94.8,7.2h0.6v0.5l0,0c0.2-0.4,0.6-0.6,1-0.6c0.6,0,1.1,0.4,1.2,1c0,0.1,0,0.2,0,0.2v2.1h-0.6V8.5c0-0.5-0.2-0.8-0.7-0.8
				c-0.4,0-0.8,0.3-0.8,0.7v0.1v1.8h-0.7V7.2z"/>
			<path d="M101,6.4v0.8h0.7v0.6H101v1.6c0,0.3,0.1,0.5,0.5,0.5c0.1,0,0.2,0,0.3,0v0.5c-0.1,0-0.2,0-0.4,0c-0.7,0-1-0.3-1-0.9V7.8
				H100V7.3h0.5V6.4H101z"/>
			<path d="M102.7,6h0.7v1.7h0.1c0.2-0.4,0.6-0.6,1-0.6c0.6,0,1.1,0.4,1.2,1c0,0.1,0,0.1,0,0.2v2h-0.7V8.4c0-0.5-0.2-0.8-0.7-0.8
				c-0.4,0-0.8,0.3-0.8,0.7v0.1v1.8h-0.8V6z"/>
			<path d="M109,9.6c-0.2,0.6-0.8,1-1.3,1c-0.8,0-1.4-0.6-1.5-1.4c0-0.1,0-0.2,0-0.2c-0.1-0.8,0.5-1.5,1.3-1.6c0.1,0,0.1,0,0.2,0
				c0.9,0,1.4,0.6,1.4,1.6v0.2h-2.3l0,0c0,0.5,0.3,0.9,0.8,1h0.1c0.3,0,0.6-0.1,0.8-0.4L109,9.6z M106.8,8.6h1.6
				c0-0.4-0.3-0.8-0.7-0.9h-0.1C107.2,7.7,106.8,8.1,106.8,8.6L106.8,8.6L106.8,8.6z"/>
		</g>
	</g>
</g>
<g class="st1">
	<path d="M7.2,19.9l0.1,2.6H5.9V18h2l0.8,2.4h0L9.5,18h2.1v4.5H10l0-2.6l0,0l-0.8,2.6H8.1L7.2,19.9L7.2,19.9z"/>
	<path d="M13.6,18h1.6l1.8,4.5h-1.7l-0.2-0.7h-1.4l-0.2,0.7h-1.6L13.6,18z M14.4,19.5L14,20.7h0.7L14.4,19.5z"/>
	<path d="M19.2,22.5h-1.5v-3.3h-1.1V18h3.8v1.3h-1.1V22.5z"/>
	<path d="M23.6,20.8h-1.2v1.7h-1.5V18h1.5v1.5h1.2V18h1.5v4.5h-1.5V20.8z"/>
</g>
<g class="st1">
	<path d="M12.1,14.6C12.1,14.6,12.2,14.5,12.1,14.6l1.6-9l-1,0C12.8,5,12.9,4.5,13,4c1.2,0,2.6,0,4,0c1.2,0,2,0,2.9,0.4
		c1.4,0.6,1.9,1.8,1.9,3.1c0,1.9-1.3,3.3-2.7,4c-1,0.5-1.9,0.5-2.7,0.5c-0.2,0-0.7,0-0.9,0l-0.5,2.6l1.6,0.1
		c-0.1,0.5-0.2,1.1-0.3,1.6c-0.9,0-2.1,0-3.2,0c-0.8,0-1.6,0-2.3,0c0.1-0.5,0.2-1.1,0.3-1.6L12.1,14.6z M15.9,10.2
		c0,0.2,0.3,0.2,0.6,0.2c0.5,0,1.1-0.1,1.4-0.5c0.5-0.4,0.9-1.2,0.9-2.3c0-0.9-0.4-2.1-1.5-2.1c-0.2,0-0.4,0-0.6,0L15.9,10.2z"/>
</g>
<g class="st1">
	<path d="M2.5,30.2c0.9,0,1.4,0.6,1.4,1.4c0,0.9-0.6,1.4-1.5,1.4H1.7v1.3H0.8v-4.2H2.5z M1.7,32.3h0.6c0.5,0,0.8-0.3,0.8-0.7
		c0-0.5-0.3-0.7-0.8-0.7H1.7V32.3z"/>
	<path d="M4.1,33.5c0-0.6,0.4-0.9,1.2-0.9l0.8,0v-0.2c0-0.3-0.2-0.5-0.5-0.5C5.2,31.8,5,32,5,32.2H4.2c0-0.6,0.5-1,1.4-1
		c0.8,0,1.3,0.4,1.3,1v2.1H6.1v-0.5h0c-0.2,0.3-0.6,0.5-0.9,0.5C4.5,34.4,4.1,34,4.1,33.5z M6,33.2V33l-0.7,0
		c-0.3,0-0.5,0.2-0.5,0.4c0,0.2,0.2,0.4,0.5,0.4C5.7,33.8,6,33.5,6,33.2z"/>
	<path d="M10.5,32.8c0,1-0.5,1.6-1.3,1.6c-0.5,0-0.8-0.2-1-0.6h0v1.5H7.4v-4.1h0.8v0.5h0c0.2-0.4,0.5-0.6,1-0.6
		C10,31.2,10.5,31.8,10.5,32.8z M9.6,32.8c0-0.6-0.3-0.9-0.7-0.9c-0.4,0-0.7,0.4-0.7,0.9c0,0.6,0.3,0.9,0.7,0.9
		C9.4,33.7,9.6,33.4,9.6,32.8z"/>
	<path d="M13.8,33.4c-0.1,0.6-0.6,1-1.4,1c-1,0-1.5-0.6-1.5-1.6c0-1,0.6-1.6,1.5-1.6c0.9,0,1.5,0.6,1.5,1.6V33h-2.1V33
		c0,0.4,0.3,0.7,0.7,0.7c0.3,0,0.5-0.2,0.6-0.4H13.8z M11.7,32.5H13c0-0.4-0.3-0.7-0.7-0.7C12,31.8,11.7,32.1,11.7,32.5z"/>
	<path d="M14.3,31.2h0.8v0.6h0c0.1-0.4,0.4-0.6,0.7-0.6c0.1,0,0.2,0,0.2,0V32c-0.1,0-0.2,0-0.3,0c-0.4,0-0.7,0.3-0.7,0.7v1.7h-0.8
		V31.2z"/>
	<path d="M21.3,34.4v-2.8h0l-1.1,2.8h-0.6l-1.1-2.8h0v2.8h-0.8v-4.2h1l1.2,3h0l1.2-3h1v4.2H21.3z"/>
	<path d="M22.5,33.5c0-0.6,0.4-0.9,1.2-0.9l0.8,0v-0.2c0-0.3-0.2-0.5-0.5-0.5c-0.3,0-0.5,0.2-0.6,0.4h-0.8c0-0.6,0.5-1,1.4-1
		c0.8,0,1.3,0.4,1.3,1v2.1h-0.8v-0.5h0c-0.2,0.3-0.6,0.5-0.9,0.5C23,34.4,22.5,34,22.5,33.5z M24.5,33.2V33l-0.7,0
		c-0.3,0-0.5,0.2-0.5,0.4c0,0.2,0.2,0.4,0.5,0.4C24.2,33.8,24.5,33.5,24.5,33.2z"/>
	<path d="M27,30.5v0.7h0.6v0.6H27v1.5c0,0.2,0.1,0.4,0.4,0.4c0.1,0,0.2,0,0.2,0v0.6c-0.1,0-0.2,0-0.4,0c-0.7,0-1-0.2-1-0.8v-1.6
		h-0.4v-0.6h0.4v-0.7H27z"/>
	<path d="M28,30.2h0.8v1.6h0c0.2-0.4,0.5-0.6,1-0.6c0.7,0,1.1,0.4,1.1,1.2v2h-0.8v-1.8c0-0.4-0.2-0.6-0.6-0.6
		c-0.4,0-0.6,0.3-0.6,0.7v1.8H28V30.2z"/>
</g>
<path class="st2" d="M23.8,28.6h-17c-3.1,0-5.6-2.5-5.6-5.6V6c0-3.1,2.5-5.6,5.6-5.6h17c3.1,0,5.6,2.5,5.6,5.6v17
	C29.4,26.1,26.9,28.6,23.8,28.6z"/>
</svg>
